<svg width="141" height="218" viewBox="0 0 141 218" fill="none" xmlns="http://www.w3.org/2000/svg">
<path d="M71.4988 136.998C109.33 136.998 139.998 106.33 139.998 68.4988C139.998 30.668 109.33 0 71.4988 0C33.668 0 3 30.668 3 68.4988C3 106.33 33.668 136.998 71.4988 136.998Z" fill="#0030FF"/>
<path d="M38.2619 71.2295C38.2619 71.2295 38.2402 71.2102 38.2619 71.2295V71.2295ZM89.9707 74.8736C91.0944 74.8736 93.1823 74.4894 94.9294 72.2783C98.2376 68.0881 102.041 63.1148 102.041 23.4839H95.7534C95.7534 35.3007 95.345 46.2838 94.3639 53.9997C93.0276 64.5285 91.5849 68.5883 89.9852 68.5883C88.3854 68.5883 87.0008 64.5285 85.5871 53.9997C84.5528 46.2934 84.1976 35.3031 84.1976 23.4839H77.9098C77.9098 63.1148 81.6409 68.0421 85.0241 72.2783C86.7035 74.3831 88.8446 74.8736 89.9683 74.8736H89.9707ZM66.3758 23.4839H72.6998V112.603H66.3758V99.5391C63.7442 106.472 58.5051 111.38 51.5794 113.376C50.1681 113.782 48.0996 114.118 45.6831 114.118C41.7997 114.118 37.0126 113.253 32.5927 110.43C28.4677 107.794 23.12 102.608 21.6966 92.2001C20.3071 82.0532 24.3814 73.2594 28.9172 67.1529L33.4941 69.9222C29.6518 75.9683 26.6698 82.2247 27.8878 91.2335C28.6997 97.2507 31.6044 102.282 36.0025 105.092C39.5016 107.328 43.1892 107.796 45.6686 107.796C47.191 107.796 48.7061 107.61 49.8226 107.289C54.8779 105.832 58.6936 102.176 60.5688 96.9945C63.1328 89.9093 61.7554 81.1276 56.9755 74.0738C54.298 70.1228 48.1962 64.6542 44.5449 61.3774C43.5444 60.4808 42.6817 59.7075 42.2637 59.2943C35.8526 52.9944 33.4893 47.7893 34.3568 41.8833C34.9102 38.1135 37.8849 34.8318 41.4276 34.0803C44.482 33.4303 47.5341 34.1021 50.2503 36.0208C54.1795 38.7974 56.9271 43.802 57.9469 49.679L52.7103 50.9911C51.9008 46.8541 49.8081 41.255 44.9943 40.1675C43.9311 39.9283 42.6237 40.1506 41.8311 40.7596C39.9051 42.2361 40.3522 45.4549 41.1617 47.434C42.3241 50.2734 44.5473 52.6585 46.7028 54.7778C47.017 55.0872 47.9135 55.8894 48.7786 56.6651C54.008 61.3508 59.3533 66.2805 62.2242 70.5287C63.9979 73.1531 65.3874 75.9852 66.3709 78.9044V47.5718L62.4803 48.5456C61.1851 41.4459 58.1644 35.3152 53.2178 31.8209C49.3006 29.0515 44.8542 28.0946 40.357 29.0491C37.5804 29.6387 34.9416 31.2046 32.9238 33.4544C30.9713 35.6317 29.6736 38.36 29.2628 41.1366C28.1415 48.751 31.0389 55.4835 38.6534 62.9674C39.156 63.4628 40.0187 64.2361 41.1134 65.2148C44.3564 68.1219 50.3904 73.5325 52.7127 76.9615C56.5284 82.5896 57.7101 89.7643 55.7285 95.245C54.8103 97.7847 52.79 101.049 48.3944 102.316C47.1185 102.683 42.6116 103.21 38.7694 100.755C35.6714 98.7755 33.6318 94.9381 32.9697 90.4482C32.3873 86.4996 32.7716 79.1291 38.0033 71.5485L38.2547 71.2295C38.2547 71.2295 38.274 71.2465 38.2547 71.2295C36.8144 69.9294 34.8184 68.0856 34.2118 67.4863C28.4991 61.8727 21.1215 52.9389 22.9943 40.2159C24.2412 31.7363 30.8383 24.5955 39.0376 22.8531C45.2167 21.5385 51.0695 22.9256 56.4293 26.6277C60.8516 29.6822 64.4594 34.7763 66.3685 42.0138V23.4839H66.3758ZM38.7259 89.0055C39.0062 90.9508 39.6949 92.5699 40.6253 93.8893C41.8891 95.6751 43.4526 96.3952 45.5381 96.3469C48.6167 96.2744 50.185 93.6259 50.3518 90.3394C50.5258 86.8983 49.3344 83.1382 47.2127 80.1997C46.2389 78.8512 44.6657 77.1186 42.2709 75.0066C39.8351 78.7957 37.9502 83.6336 38.7259 89.0079V89.0055ZM107.254 23.4839V112.603H113.578V23.4839H107.254ZM89.9707 80.1223C85.459 80.1223 80.3674 77.0389 77.876 69.8062V112.603H84.2V84.46C86.1695 85.777 88.1945 86.1274 89.9755 86.1274C91.7565 86.1274 93.7815 85.777 95.751 84.46V112.603H102.075V69.8062C99.5836 77.0389 94.4799 80.1223 89.9659 80.1223H89.9707Z" fill="white"/>
<path d="M19.5374 171.572L26.2721 150.916H36.8714V182.556H29.3457V159.572L21.6392 182.104H17.2096L9.50312 159.685V182.556H2V150.916H12.8931L19.5374 171.572Z" fill="#0030FF"/>
<path d="M68.1775 182.556H60.1998L58.0076 175.505H47.6569L45.4421 182.556H37.6226L48.5609 150.916H57.2166L68.1775 182.556ZM52.8775 158.962L49.5553 169.493H56.1544L52.8775 158.962Z" fill="#0030FF"/>
<path d="M76.6779 150.916V176.205H91.5034V182.556H68.9488V150.916H76.6779Z" fill="#0030FF"/>
<path d="M100.508 150.916V176.205H115.333V182.556H92.7786V150.916H100.508Z" fill="#0030FF"/>
<path d="M115.696 171.64C117.217 173.162 119.063 174.375 121.233 175.279C123.402 176.183 125.609 176.635 127.854 176.635C129.481 176.635 130.755 176.348 131.674 175.776C132.593 175.203 133.052 174.397 133.052 173.358C133.052 172.589 132.789 171.957 132.261 171.459C131.734 170.947 130.958 170.616 129.933 170.465L124.216 169.606C122.362 169.335 120.743 168.8 119.357 168.002C117.986 167.188 116.916 166.133 116.148 164.838C115.394 163.542 115.018 162.043 115.018 160.34C115.018 158.351 115.545 156.611 116.6 155.12C117.654 153.613 119.146 152.453 121.074 151.639C123.003 150.826 125.248 150.419 127.809 150.419C129.813 150.419 131.749 150.652 133.617 151.12C135.485 151.572 137.173 152.212 138.68 153.041V160.431C137.173 159.301 135.455 158.419 133.527 157.786C131.613 157.154 129.7 156.837 127.786 156.837C126.099 156.837 124.788 157.116 123.854 157.673C122.92 158.216 122.453 158.977 122.453 159.956C122.453 160.739 122.747 161.387 123.334 161.9C123.937 162.397 124.781 162.721 125.865 162.871L131.809 163.73C133.587 163.971 135.131 164.491 136.442 165.29C137.753 166.073 138.755 167.098 139.448 168.363C140.156 169.614 140.51 171.045 140.51 172.657C140.51 174.661 139.983 176.454 138.928 178.036C137.873 179.603 136.382 180.831 134.453 181.72C132.54 182.609 130.333 183.053 127.832 183.053C125.662 183.053 123.523 182.714 121.413 182.036C119.319 181.358 117.413 180.394 115.696 179.143V171.64Z" fill="#0030FF"/>
<path d="M13.46 217.36C10.94 217.36 8.72001 216.767 6.80001 215.58C4.88001 214.38 3.39334 212.693 2.34001 210.52C1.28668 208.347 0.76001 205.84 0.76001 203C0.76001 200.16 1.28668 197.653 2.34001 195.48C3.39334 193.307 4.88001 191.627 6.80001 190.44C8.72001 189.24 10.94 188.64 13.46 188.64C15.98 188.64 18.2 189.24 20.12 190.44C22.04 191.627 23.5267 193.307 24.58 195.48C25.6333 197.653 26.16 200.16 26.16 203C26.16 205.84 25.6333 208.347 24.58 210.52C23.5267 212.693 22.04 214.38 20.12 215.58C18.2 216.767 15.98 217.36 13.46 217.36ZM13.46 214.06C15.22 214.06 16.7667 213.6 18.1 212.68C19.4467 211.76 20.4867 210.467 21.22 208.8C21.9533 207.12 22.32 205.187 22.32 203C22.32 200.813 21.9533 198.887 21.22 197.22C20.4867 195.54 19.4467 194.24 18.1 193.32C16.7667 192.4 15.22 191.94 13.46 191.94C11.7 191.94 10.1467 192.4 8.80001 193.32C7.46668 194.24 6.43334 195.54 5.70001 197.22C4.96668 198.887 4.60001 200.813 4.60001 203C4.60001 205.187 4.96668 207.12 5.70001 208.8C6.43334 210.467 7.46668 211.76 8.80001 212.68C10.1467 213.6 11.7 214.06 13.46 214.06Z" fill="#0030FF"/>
<path d="M49.6063 211.98V189H53.2463V217H48.7063L34.6863 193.68V217H31.0463V189H35.8063L49.6063 211.98Z" fill="#0030FF"/>
<path d="M63.2428 189V213.8H77.8228V217H59.5228V189H63.2428Z" fill="#0030FF"/>
<path d="M85.235 189V217H81.515V189H85.235Z" fill="#0030FF"/>
<path d="M110.075 211.98V189H113.715V217H109.175L95.155 193.68V217H91.515V189H96.275L110.075 211.98Z" fill="#0030FF"/>
<path d="M123.712 204.16V213.8H138.292V217H119.992V189H138.212V192.2H123.712V200.98H136.332V204.16H123.712Z" fill="#0030FF"/>
</svg>
