<svg width="399" height="239" viewBox="0 0 399 239" fill="none" xmlns="http://www.w3.org/2000/svg">
<g clip-path="url(#clip0)">
<path d="M143.043 227.721C143.043 157.259 200.338 100.132 271.026 100.132C341.715 100.132 399.009 157.25 399.009 227.721H143.043Z" fill="#DCE4FF"/>
<path d="M0 227.721C0 185.598 34.2534 151.45 76.5063 151.45C118.759 151.45 153.013 185.598 153.013 227.721H0Z" fill="#DCE4FF"/>
<path d="M178.3 98.3238C176.569 95.0384 172.565 91.4868 168.312 92.1017C163.139 92.8542 160.644 99.3241 160.322 100.187C156.188 111.383 166.452 123.341 161.822 127.681C160.202 129.196 157.477 129.122 157.45 130.297C157.431 131.481 160.174 132.518 161.942 132.912C164.492 133.472 169.766 133.711 172.298 130.802C177.076 125.305 168.358 112.906 172.795 109.281C174.636 107.776 176.937 109.254 178.659 107.29C180.675 105.005 179.57 100.737 178.3 98.3238Z" fill="black"/>
<path d="M154.071 219.801H229.998L230.09 159.15C230.09 152.138 224.382 146.449 217.349 146.449H166.904C159.871 146.449 154.163 152.138 154.163 159.15L154.071 219.801Z" fill="#F983AC"/>
<path d="M190.101 132.527H201.672C210.224 132.527 217.23 125.552 217.23 117.018V105.344C217.23 98.0117 211.209 92.0099 203.854 92.0099H190.101C181.549 92.0099 174.544 98.9845 174.544 107.519V117.018C174.544 125.543 181.549 132.527 190.101 132.527Z" fill="black"/>
<path d="M187.505 123.533L182.672 149.339C182.672 149.339 190.764 154.222 195.891 155.176C201.028 156.131 201.755 151.046 201.755 151.046L206.754 124.35L187.505 123.533Z" fill="#FF9961"/>
<path d="M203.072 144.007L191.169 131.361L206.229 128.058L203.072 144.007Z" fill="black"/>
<path d="M214.251 119.407C215.541 109.239 209.628 100.119 201.043 99.0367C192.459 97.9541 184.453 105.319 183.163 115.486C181.873 125.653 187.787 134.773 196.371 135.856C204.956 136.938 212.961 129.574 214.251 119.407Z" fill="#FF9961"/>
<path d="M182.516 119.991C184.885 119.991 186.806 118.076 186.806 115.714C186.806 113.353 184.885 111.438 182.516 111.438C180.147 111.438 178.226 113.353 178.226 115.714C178.226 118.076 180.147 119.991 182.516 119.991Z" fill="#FF9961"/>
<path d="M202.308 115.926V119.229C202.308 119.229 204.112 119.679 203.817 120.578C203.514 121.478 201.406 122.23 201.406 122.23" stroke="black" stroke-width="0.25" stroke-miterlimit="10" stroke-linecap="round"/>
<path d="M195.892 117.66C196.502 117.66 196.996 116.994 196.996 116.173C196.996 115.352 196.502 114.687 195.892 114.687C195.281 114.687 194.787 115.352 194.787 116.173C194.787 116.994 195.281 117.66 195.892 117.66Z" fill="black"/>
<path d="M205.981 118.357C206.591 118.357 207.085 117.692 207.085 116.871C207.085 116.05 206.591 115.384 205.981 115.384C205.371 115.384 204.876 116.05 204.876 116.871C204.876 117.692 205.371 118.357 205.981 118.357Z" fill="black"/>
<path d="M204.489 113.218C204.812 113.053 205.125 112.98 205.447 112.916C205.769 112.851 206.082 112.86 206.404 112.824C206.726 112.86 207.039 112.851 207.361 112.916C207.684 112.98 207.997 113.053 208.319 113.218V113.264C207.039 113.292 205.769 113.292 204.489 113.264V113.218Z" fill="black"/>
<path d="M194.188 112.631C194.511 112.466 194.824 112.392 195.146 112.328C195.468 112.264 195.781 112.273 196.103 112.236C196.425 112.273 196.738 112.264 197.061 112.328C197.383 112.392 197.696 112.466 198.018 112.631V112.677C196.738 112.704 195.468 112.704 194.188 112.677V112.631Z" fill="black"/>
<path d="M201.405 126.47C201.405 126.47 198.837 127.626 197.005 126.47C195.173 125.314 194.198 123.175 194.198 123.175" stroke="black" stroke-width="0.25" stroke-miterlimit="10" stroke-linecap="round"/>
<path d="M216.199 110.759C216.199 110.759 211.016 111.75 204.867 109.263C198.717 106.776 192.982 102.05 192.982 102.05C192.982 102.05 190.488 111.181 187.864 112.649C185.241 114.118 176.882 114.687 176.882 114.687L185.121 98.3145C185.121 98.3145 197.438 96.2038 198.018 96.0753C198.598 95.9468 204.489 96.5709 204.489 96.5709L208.834 99.8012L216.199 110.759Z" fill="black"/>
<path d="M149.054 227.253H181.678V146.449H157.21C152.7 146.449 149.054 150.092 149.054 154.58V227.253Z" fill="#0C35FD"/>
<path d="M206.248 227.253H234.352V154.58C234.352 150.083 230.697 146.449 226.196 146.449H206.257V227.253H206.248Z" fill="#0C35FD"/>
<path d="M182.332 151.652C183.613 151.652 184.652 150.617 184.652 149.339C184.652 148.062 183.613 147.027 182.332 147.027C181.051 147.027 180.012 148.062 180.012 149.339C180.012 150.617 181.051 151.652 182.332 151.652Z" fill="white"/>
<path d="M185.462 153.965C186.743 153.965 187.782 152.929 187.782 151.652C187.782 150.375 186.743 149.339 185.462 149.339C184.181 149.339 183.142 150.375 183.142 151.652C183.142 152.929 184.181 153.965 185.462 153.965Z" fill="white"/>
<path d="M189.595 156.277C190.876 156.277 191.915 155.242 191.915 153.965C191.915 152.688 190.876 151.652 189.595 151.652C188.314 151.652 187.275 152.688 187.275 153.965C187.275 155.242 188.314 156.277 189.595 156.277Z" fill="white"/>
<path d="M194.142 156.277C195.424 156.277 196.462 155.242 196.462 153.965C196.462 152.688 195.424 151.652 194.142 151.652C192.861 151.652 191.823 152.688 191.823 153.965C191.823 155.242 192.861 156.277 194.142 156.277Z" fill="white"/>
<path d="M198.828 155.662C200.109 155.662 201.148 154.627 201.148 153.35C201.148 152.073 200.109 151.037 198.828 151.037C197.547 151.037 196.508 152.073 196.508 153.35C196.508 154.627 197.547 155.662 198.828 155.662Z" fill="white"/>
<path d="M201.82 152.597C203.101 152.597 204.14 151.562 204.14 150.285C204.14 149.007 203.101 147.972 201.82 147.972C200.539 147.972 199.5 149.007 199.5 150.285C199.5 151.562 200.539 152.597 201.82 152.597Z" fill="white"/>
<path d="M195.109 198.529L205.41 195.179C205.41 195.179 204.747 189.508 214.79 190.875C224.833 192.242 239.405 203.98 239.405 203.98L209.239 209.945H192.992L195.109 198.529Z" fill="#FF9961"/>
<path d="M142.601 213.221C143.135 213.286 143.678 213.322 144.221 213.313L195.707 212.561L195.367 189.471L160.911 189.976L171.884 161.114L150.223 152.937L133.212 197.685C131.849 201.264 132.356 205.274 134.565 208.403C136.461 211.083 139.389 212.818 142.601 213.221Z" fill="#0C35FD"/>
<path d="M296.599 212.955H213.87L221.74 155.286H304.46L296.599 212.955Z" fill="#2C20BE"/>
<path d="M388.193 212.955H82.186V239H388.193V212.955Z" fill="#5C7FFE"/>
<path d="M265.457 207.33H180.012V212.955H265.457V207.33Z" fill="#2C20BE"/>
<path d="M168.616 169.731L160.92 189.976L195.376 189.471L195.597 204.99" stroke="#FFF4E5" stroke-width="0.25" stroke-miterlimit="10"/>
<path d="M82.186 212.955L132.475 239H82.186V212.955Z" fill="#0C35FD"/>
<path d="M214.643 207.33H204.14L213.87 212.955L214.643 207.33Z" fill="#1713A0"/>
<path d="M57.7825 178.293C71.2592 182.533 85.6473 175.081 89.9002 161.646C94.1531 148.211 86.6783 133.867 73.2016 129.627C64.1711 126.782 54.7355 129.196 48.2088 135.142L53.7137 141.135L65.4966 153.965L48.4666 157.718L40.5039 159.471C42.4094 168.079 48.7428 175.448 57.7825 178.293Z" fill="#F64F88"/>
<path d="M58.6754 151.817L46.8924 138.988L41.3876 132.995C38.1749 135.923 35.6618 139.694 34.2626 144.127C32.8542 148.56 32.7345 153.093 33.6826 157.324L41.6453 155.571L58.6754 151.817Z" fill="#FFCE21"/>
<path d="M132.475 88.0087C156.853 88.0087 176.615 68.3073 176.615 44.0043C176.615 19.7014 156.853 0 132.475 0C108.097 0 88.3352 19.7014 88.3352 44.0043C88.3352 68.3073 108.097 88.0087 132.475 88.0087Z" fill="#DEF8FA"/>
<path d="M149.22 66.837H113.181C112.168 66.837 111.34 66.011 111.34 65.0016V21.5387C111.34 20.5292 112.168 19.7032 113.181 19.7032H149.22C150.233 19.7032 151.061 20.5292 151.061 21.5387V65.0016C151.061 66.011 150.233 66.837 149.22 66.837Z" fill="#0030FF"/>
<path d="M146.283 63.1754H116.108C115.602 63.1754 115.188 62.7624 115.188 62.2577V24.2827C115.188 23.778 115.602 23.365 116.108 23.365H146.283C146.79 23.365 147.204 23.778 147.204 24.2827V62.2577C147.204 62.7624 146.79 63.1754 146.283 63.1754Z" fill="white"/>
<path d="M141.764 35.8917H128.324C127.919 35.8917 127.587 35.5613 127.587 35.1575C127.587 34.7537 127.919 34.4233 128.324 34.4233H141.764C142.169 34.4233 142.5 34.7537 142.5 35.1575C142.5 35.5613 142.169 35.8917 141.764 35.8917Z" fill="#F64E88"/>
<path d="M123.914 37.7455H120.563C120.057 37.7455 119.643 37.3325 119.643 36.8278V33.4873C119.643 32.9826 120.057 32.5696 120.563 32.5696H123.914C124.421 32.5696 124.835 32.9826 124.835 33.4873V36.8278C124.835 37.3325 124.421 37.7455 123.914 37.7455Z" fill="#FFD15C"/>
<path d="M141.764 44.0042H128.324C127.919 44.0042 127.587 43.6739 127.587 43.2701C127.587 42.8663 127.919 42.5359 128.324 42.5359H141.764C142.169 42.5359 142.5 42.8663 142.5 43.2701C142.5 43.6739 142.169 44.0042 141.764 44.0042Z" fill="#F64E88"/>
<path d="M123.914 45.858H120.563C120.057 45.858 119.643 45.4451 119.643 44.9403V41.5998C119.643 41.0951 120.057 40.6821 120.563 40.6821H123.914C124.421 40.6821 124.835 41.0951 124.835 41.5998V44.9403C124.835 45.4451 124.421 45.858 123.914 45.858Z" fill="#FFD15C"/>
<path d="M141.764 52.1262H128.324C127.919 52.1262 127.587 51.7958 127.587 51.392C127.587 50.9882 127.919 50.6578 128.324 50.6578H141.764C142.169 50.6578 142.5 50.9882 142.5 51.392C142.5 51.7958 142.169 52.1262 141.764 52.1262Z" fill="#F64E88"/>
<path d="M123.914 53.9707H120.563C120.057 53.9707 119.643 53.5577 119.643 53.053V49.7125C119.643 49.2078 120.057 48.7948 120.563 48.7948H123.914C124.421 48.7948 124.835 49.2078 124.835 49.7125V53.053C124.835 53.5669 124.421 53.9707 123.914 53.9707Z" fill="#FFD15C"/>
<path d="M137.943 18.7489H134.537C134.74 18.29 134.859 17.7945 134.859 17.2622C134.859 15.2524 133.212 13.6097 131.196 13.6097C129.18 13.6097 127.532 15.2524 127.532 17.2622C127.532 17.7945 127.652 18.2992 127.854 18.7489H124.448C123.39 18.7489 122.543 19.6023 122.543 20.6485V23.3741C122.543 24.4295 123.399 25.2738 124.448 25.2738H137.934C138.993 25.2738 139.84 24.4203 139.84 23.3741V20.6485C139.849 19.6023 138.993 18.7489 137.943 18.7489ZM131.196 15.9866C131.895 15.9866 132.475 16.5555 132.475 17.2622C132.475 17.9688 131.905 18.5378 131.196 18.5378C130.487 18.5378 129.916 17.9688 129.916 17.2622C129.916 16.5555 130.496 15.9866 131.196 15.9866Z" fill="#FFD15C"/>
<path d="M149.275 75.2249C154.944 75.2249 159.539 70.6436 159.539 64.9924C159.539 59.3411 154.944 54.7599 149.275 54.7599C143.606 54.7599 139.011 59.3411 139.011 64.9924C139.011 70.6436 143.606 75.2249 149.275 75.2249Z" fill="#F64E88"/>
<path d="M149.275 75.9591C143.209 75.9591 138.275 71.0402 138.275 64.9924C138.275 58.9447 143.209 54.0258 149.275 54.0258C155.342 54.0258 160.276 58.9447 160.276 64.9924C160.276 71.0402 155.342 75.9591 149.275 75.9591ZM149.275 55.4849C144.019 55.4849 139.748 59.7523 139.748 64.9832C139.748 70.2234 144.028 74.4816 149.275 74.4816C154.522 74.4816 158.803 70.2234 158.803 64.9832C158.812 59.7523 154.531 55.4849 149.275 55.4849Z" fill="white"/>
<path d="M147.627 68.9111C147.434 68.9111 147.25 68.8377 147.103 68.7L144.01 65.6165C143.724 65.332 143.724 64.864 144.01 64.5795C144.295 64.295 144.765 64.295 145.05 64.5795L147.618 67.1399L153.491 61.2849C153.777 61.0004 154.246 61.0004 154.531 61.2849C154.817 61.5694 154.817 62.0374 154.531 62.3219L148.143 68.6908C148.005 68.8377 147.812 68.9111 147.627 68.9111Z" fill="white"/>
<path d="M300.52 129.333C323.185 129.333 341.558 111.017 341.558 88.4216C341.558 65.8268 323.185 47.51 300.52 47.51C277.856 47.51 259.483 65.8268 259.483 88.4216C259.483 111.017 277.856 129.333 300.52 129.333Z" fill="#FFF6DD"/>
<path d="M290.302 75.3627C290.302 73.4722 289.474 71.7653 288.157 70.5998C287.706 70.2051 286.998 70.5447 286.998 71.1412V74.3348C286.998 75.9408 285.819 77.3633 284.227 77.5193C282.395 77.6937 280.848 76.262 280.848 74.4633V71.1412C280.848 70.5355 280.121 70.2051 279.67 70.6089C278.225 71.8937 277.369 73.8301 277.562 75.95C277.792 78.4278 279.495 80.5294 281.778 81.3462V100.407C280.351 101.169 279.375 102.674 279.375 104.399C279.375 106.895 281.41 108.923 283.914 108.923C286.418 108.923 288.452 106.895 288.452 104.399C288.452 102.674 287.476 101.169 286.049 100.407V81.3554C288.535 80.4743 290.302 78.125 290.302 75.3627ZM283.923 106.106C282.984 106.106 282.22 105.344 282.22 104.408C282.22 103.472 282.984 102.711 283.923 102.711C284.862 102.711 285.626 103.472 285.626 104.408C285.626 105.344 284.862 106.106 283.923 106.106Z" fill="#0030FF"/>
<path d="M319.391 71.0402H315.139C314.816 71.0402 314.531 71.2329 314.384 71.5174C314.025 72.2149 313.297 72.6829 312.46 72.6829C311.585 72.6829 310.83 72.1598 310.49 71.4164V71.4348C310.379 71.1962 310.14 71.031 309.855 71.031H306.844C306.449 71.031 306.136 71.3522 306.136 71.7376V78.1249C306.136 78.5195 306.458 78.8316 306.844 78.8316H309.855C310.14 78.8316 310.379 78.6664 310.49 78.4278V78.4461C310.84 77.7028 311.585 77.1797 312.46 77.1797C312.966 77.1797 313.436 77.354 313.813 77.6477C314.328 78.0515 314.577 78.7123 314.577 79.3638V79.6116V79.9053C314.577 80.2999 314.899 80.6119 315.286 80.6119H318.36C319.032 80.6119 319.032 80.0429 319.226 79.6116C320.266 76.987 321.472 75.9041 323.948 75.9041C325.274 75.9041 326.507 76.3446 327.483 77.0971C327.713 77.2714 328.054 77.1063 328.054 76.8218C328.045 73.6373 323.681 71.0402 319.391 71.0402Z" fill="#0030FF"/>
<path d="M316.924 109.538C314.816 109.538 313.141 107.776 313.261 105.675L314.605 81.0525H319.253L320.597 105.675C320.708 107.776 319.032 109.538 316.924 109.538Z" fill="#F64E88"/>
<path d="M316.924 110.172C315.728 110.172 314.623 109.694 313.795 108.832C312.975 107.969 312.552 106.84 312.625 105.647L313.997 80.4285H319.842L321.214 105.647C321.279 106.84 320.864 107.969 320.045 108.832C319.226 109.694 318.121 110.172 316.924 110.172ZM315.194 81.6857L313.887 105.711C313.841 106.556 314.135 107.354 314.715 107.96C315.295 108.575 316.077 108.905 316.924 108.905C317.771 108.905 318.554 108.566 319.134 107.96C319.714 107.345 320.008 106.547 319.962 105.711L318.655 81.6857H315.194Z" fill="white"/>
<path d="M300.999 87.5407H295.936L294.509 66.9655C294.334 64.3776 296.157 62.1659 298.468 62.1659C300.778 62.1659 302.601 64.3776 302.426 66.9655L300.999 87.5407Z" fill="#0030FF"/>
<path d="M301.588 88.1739H295.338L293.874 67.0114C293.773 65.4972 294.279 64.0197 295.264 62.9643C296.12 62.0466 297.262 61.5419 298.458 61.5419C299.655 61.5419 300.797 62.0466 301.653 62.9643C302.638 64.0197 303.153 65.4972 303.043 67.0114L301.588 88.1739ZM296.516 86.9074H300.401L301.782 66.9197C301.864 65.7542 301.478 64.6162 300.723 63.8178C299.48 62.4963 297.418 62.4963 296.185 63.8178C295.43 64.6162 295.052 65.7542 295.126 66.9197L296.516 86.9074Z" fill="white"/>
<path d="M304.479 90.1654H292.447V88.2749C292.447 87.2654 293.276 86.4395 294.288 86.4395H302.638C303.65 86.4395 304.479 87.2654 304.479 88.2749V90.1654Z" fill="#0030FF"/>
<path d="M305.169 90.0829H291.757V93.9465H305.169V90.0829Z" fill="#F64E88"/>
<path d="M304.479 90.7711V93.2581H292.447V90.7711H304.479ZM305.86 89.3945H304.479H292.447H291.066V90.7711V93.2581V94.6347H292.447H304.479H305.86V93.2581V90.7711V89.3945Z" fill="white"/>
<path d="M304.396 102.252H292.539C292.024 102.252 291.619 101.811 291.665 101.297L292.447 93.0194H304.479L305.261 101.297C305.316 101.811 304.911 102.252 304.396 102.252Z" fill="#FFD15C"/>
<path d="M296.194 102.463C296.074 102.463 295.982 102.371 295.982 102.252V97.6355C295.982 97.5162 296.074 97.4244 296.194 97.4244C296.314 97.4244 296.406 97.5162 296.406 97.6355V102.252C296.406 102.371 296.314 102.463 296.194 102.463Z" fill="white"/>
<path d="M300.732 102.463C300.612 102.463 300.52 102.371 300.52 102.252V97.6355C300.52 97.5162 300.612 97.4244 300.732 97.4244C300.852 97.4244 300.944 97.5162 300.944 97.6355V102.252C300.944 102.371 300.843 102.463 300.732 102.463Z" fill="white"/>
</g>
<defs>
<clipPath id="clip0">
<rect width="399" height="239" fill="white"/>
</clipPath>
</defs>
</svg>
